<?xml version="1.0" encoding="UTF-8" standalone="no"?>
<svg
   xmlns:dc="http://purl.org/dc/elements/1.1/"
   xmlns:cc="http://creativecommons.org/ns#"
   xmlns:rdf="http://www.w3.org/1999/02/22-rdf-syntax-ns#"
   xmlns:svg="http://www.w3.org/2000/svg"
   xmlns="http://www.w3.org/2000/svg"
   viewBox="0 0 761.33331 437.33334"
   height="437.33334"
   width="761.33331"
   xml:space="preserve"
   id="svg2"
   version="1.1"><metadata
     id="metadata8"><rdf:RDF><cc:Work
         rdf:about=""><dc:format>image/svg+xml</dc:format><dc:type
           rdf:resource="http://purl.org/dc/dcmitype/StillImage" /></cc:Work></rdf:RDF></metadata><defs
     id="defs6" /><g
     transform="matrix(1.3333333,0,0,-1.3333333,0,437.33333)"
     id="g10"><g
       transform="scale(0.1)"
       id="g12"><path
         id="path14"
         style="fill:#f3faff;fill-opacity:1;fill-rule:nonzero;stroke:none"
         d="M 2450,110 H 5600 V 3170 H 2450 Z" /><path
         id="path16"
         style="fill:none;stroke:#000000;stroke-width:10;stroke-linecap:round;stroke-linejoin:round;stroke-miterlimit:10;stroke-dasharray:none;stroke-opacity:1"
         d="M 2455,105 H 5605 V 3165 H 2455 Z" /><g
         transform="scale(10)"
         id="g18"><text
           id="text22"
           style="font-variant:normal;font-weight:bold;font-size:12px;font-family:Helvetica;-inkscape-font-specification:Helvetica-Bold;writing-mode:lr-tb;fill:#000000;fill-opacity:1;fill-rule:nonzero;stroke:none"
           transform="matrix(1,0,0,-1,250,301)"><tspan
             id="tspan20"
             y="0"
             x="0 6.6719999 10.008 17.34 24.011999 28.007999 34.68">cluster</tspan></text>
</g><path
         id="path24"
         style="fill:#d9e4ff;fill-opacity:1;fill-rule:nonzero;stroke:none"
         d="M 2720,1370 H 3890 V 2810 H 2720 Z" /><path
         id="path26"
         style="fill:none;stroke:#000000;stroke-width:10;stroke-linecap:round;stroke-linejoin:round;stroke-miterlimit:10;stroke-dasharray:none;stroke-opacity:1"
         d="M 2725,1365 H 3895 V 2805 H 2725 Z" /><g
         transform="scale(10)"
         id="g28"><text
           id="text32"
           style="font-variant:normal;font-weight:bold;font-size:12px;font-family:Helvetica;-inkscape-font-specification:Helvetica-Bold;writing-mode:lr-tb;fill:#000000;fill-opacity:1;fill-rule:nonzero;stroke:none"
           transform="matrix(1,0,0,-1,281.152,265)"><tspan
             id="tspan30"
             y="0"
             x="0 10.668 17.34 24.011999 31.344 34.68 42.012001 48.683998 52.02 59.352001 64.019997 71.351997 78.683998 82.019997 88.692001 92.028">machine proﬁle 1</tspan></text>
</g><path
         id="path34"
         style="fill:#c3ecff;fill-opacity:1;fill-rule:nonzero;stroke:none"
         d="m 3021.5,2450 h 567 c 67.07,0 121.5,-60.48 121.5,-135 0,-74.52 -54.43,-135 -121.5,-135 h -567 c -67.07,0 -121.5,60.48 -121.5,135 0,74.52 54.43,135 121.5,135" /><path
         id="path36"
         style="fill:none;stroke:#000000;stroke-width:10;stroke-linecap:round;stroke-linejoin:round;stroke-miterlimit:10;stroke-dasharray:none;stroke-opacity:1"
         d="m 3021.5,2445 h 567 c 67.07,5 121.5,-55.48 121.5,-130 0,-74.52 -54.43,-135 -121.5,-140 h -567 c -67.07,5 -121.5,65.48 -121.5,140 0,74.52 54.43,135 121.5,135" /><g
         transform="scale(10)"
         id="g38"><text
           id="text42"
           style="font-variant:normal;font-weight:normal;font-size:12px;font-family:Helvetica;-inkscape-font-specification:Helvetica;writing-mode:lr-tb;fill:#000000;fill-opacity:1;fill-rule:nonzero;stroke:none"
           transform="matrix(1,0,0,-1,306.154,227.5)"><tspan
             id="tspan40"
             y="0"
             x="0 6 12.672 16.667999 22.667999 25.332001 31.332001 38.004002 40.68375">service A</tspan></text>
</g><path
         id="path44"
         style="fill:#c3ecff;fill-opacity:1;fill-rule:nonzero;stroke:none"
         d="m 3021.5,2090 h 567 c 67.07,0 121.5,-60.48 121.5,-135 0,-74.52 -54.43,-135 -121.5,-135 h -567 c -67.07,0 -121.5,60.48 -121.5,135 0,74.52 54.43,135 121.5,135" /><path
         id="path46"
         style="fill:none;stroke:#000000;stroke-width:10;stroke-linecap:round;stroke-linejoin:round;stroke-miterlimit:10;stroke-dasharray:none;stroke-opacity:1"
         d="m 3021.5,2085 h 567 c 67.07,5 121.5,-55.48 121.5,-130 0,-74.52 -54.43,-135 -121.5,-140 h -567 c -67.07,5 -121.5,65.48 -121.5,140 0,74.52 54.43,135 121.5,135" /><g
         transform="scale(10)"
         id="g48"><text
           id="text52"
           style="font-variant:normal;font-weight:normal;font-size:12px;font-family:Helvetica;-inkscape-font-specification:Helvetica;writing-mode:lr-tb;fill:#000000;fill-opacity:1;fill-rule:nonzero;stroke:none"
           transform="matrix(1,0,0,-1,305.826,191.5)"><tspan
             id="tspan50"
             y="0"
             x="0 6 12.672 16.667999 22.667999 25.332001 31.332001 38.004002 41.34">service B</tspan></text>
</g><path
         id="path54"
         style="fill:#c3ecff;fill-opacity:1;fill-rule:nonzero;stroke:none"
         d="m 3021.5,1730 h 567 c 67.07,0 121.5,-60.48 121.5,-135 0,-74.52 -54.43,-135 -121.5,-135 h -567 c -67.07,0 -121.5,60.48 -121.5,135 0,74.52 54.43,135 121.5,135" /><path
         id="path56"
         style="fill:none;stroke:#000000;stroke-width:10;stroke-linecap:round;stroke-linejoin:round;stroke-miterlimit:10;stroke-dasharray:none;stroke-opacity:1"
         d="m 3021.5,1725 h 567 c 67.07,5 121.5,-55.48 121.5,-130 0,-74.52 -54.43,-135 -121.5,-140 h -567 c -67.07,5 -121.5,65.48 -121.5,140 0,74.52 54.43,135 121.5,135" /><g
         transform="scale(10)"
         id="g58"><text
           id="text62"
           style="font-variant:normal;font-weight:normal;font-size:12px;font-family:Helvetica;-inkscape-font-specification:Helvetica;writing-mode:lr-tb;fill:#000000;fill-opacity:1;fill-rule:nonzero;stroke:none"
           transform="matrix(1,0,0,-1,305.495,155.5)"><tspan
             id="tspan60"
             y="0"
             x="0 6 12.672 16.667999 22.667999 25.332001 31.332001 38.004002 41.34">service C</tspan></text>
</g><path
         id="path64"
         style="fill:#d9e4ff;fill-opacity:1;fill-rule:nonzero;stroke:none"
         d="m 2720,290 h 1170 v 990 H 2720 Z" /><path
         id="path66"
         style="fill:none;stroke:#000000;stroke-width:10;stroke-linecap:round;stroke-linejoin:round;stroke-miterlimit:10;stroke-dasharray:none;stroke-opacity:1"
         d="m 2725,285 h 1170 v 990 H 2725 Z" /><g
         transform="scale(10)"
         id="g68"><text
           id="text72"
           style="font-variant:normal;font-weight:bold;font-size:12px;font-family:Helvetica;-inkscape-font-specification:Helvetica-Bold;writing-mode:lr-tb;fill:#000000;fill-opacity:1;fill-rule:nonzero;stroke:none"
           transform="matrix(1,0,0,-1,281.152,112)"><tspan
             id="tspan70"
             y="0"
             x="0 10.668 17.34 24.011999 31.344 34.68 42.012001 48.683998 52.02 59.352001 64.019997 71.351997 78.683998 82.019997 88.692001 92.028">machine proﬁle 2</tspan></text>
</g><path
         id="path74"
         style="fill:#c3ecff;fill-opacity:1;fill-rule:nonzero;stroke:none"
         d="m 3021.5,1010 h 567 c 67.07,0 121.5,-60.48 121.5,-135 0,-74.52 -54.43,-135 -121.5,-135 h -567 c -67.07,0 -121.5,60.48 -121.5,135 0,74.52 54.43,135 121.5,135" /><path
         id="path76"
         style="fill:none;stroke:#000000;stroke-width:10;stroke-linecap:round;stroke-linejoin:round;stroke-miterlimit:10;stroke-dasharray:none;stroke-opacity:1"
         d="m 3021.5,1005 h 567 c 67.07,5 121.5,-55.48 121.5,-130 0,-74.52 -54.43,-135 -121.5,-140 h -567 c -67.07,5 -121.5,65.48 -121.5,140 0,74.52 54.43,135 121.5,135" /><g
         transform="scale(10)"
         id="g78"><text
           id="text82"
           style="font-variant:normal;font-weight:normal;font-size:12px;font-family:Helvetica;-inkscape-font-specification:Helvetica;writing-mode:lr-tb;fill:#000000;fill-opacity:1;fill-rule:nonzero;stroke:none"
           transform="matrix(1,0,0,-1,305.495,83.5)"><tspan
             id="tspan80"
             y="0"
             x="0 6 12.672 16.667999 22.667999 25.332001 31.332001 38.004002 41.34">service D</tspan></text>
</g><path
         id="path84"
         style="fill:#c3ecff;fill-opacity:1;fill-rule:nonzero;stroke:none"
         d="m 3021.5,650 h 567 c 67.07,0 121.5,-60.48 121.5,-135 0,-74.52 -54.43,-135 -121.5,-135 h -567 c -67.07,0 -121.5,60.48 -121.5,135 0,74.52 54.43,135 121.5,135" /><path
         id="path86"
         style="fill:none;stroke:#000000;stroke-width:10;stroke-linecap:round;stroke-linejoin:round;stroke-miterlimit:10;stroke-dasharray:none;stroke-opacity:1"
         d="m 3021.5,645 h 567 c 67.07,5 121.5,-55.48 121.5,-130 0,-74.52 -54.43,-135 -121.5,-140 h -567 c -67.07,5 -121.5,65.48 -121.5,140 0,74.52 54.43,135 121.5,135" /><g
         transform="scale(10)"
         id="g88"><text
           id="text92"
           style="font-variant:normal;font-weight:normal;font-size:12px;font-family:Helvetica;-inkscape-font-specification:Helvetica;writing-mode:lr-tb;fill:#000000;fill-opacity:1;fill-rule:nonzero;stroke:none"
           transform="matrix(1,0,0,-1,305.826,47.5)"><tspan
             id="tspan90"
             y="0"
             x="0 6 12.672 16.667999 22.667999 25.332001 31.332001 38.004002 41.34">service E</tspan></text>
</g><path
         id="path94"
         style="fill:#ffeef8;fill-opacity:1;fill-rule:nonzero;stroke:none"
         d="m 4340,2180 h 990 v 270 h -990 z" /><path
         id="path96"
         style="fill:none;stroke:#000000;stroke-width:10;stroke-linecap:round;stroke-linejoin:round;stroke-miterlimit:10;stroke-dasharray:none;stroke-opacity:1"
         d="m 4345,2175 h 990 v 270 h -990 z" /><g
         transform="scale(10)"
         id="g98"><text
           id="text102"
           style="font-variant:normal;font-weight:normal;font-size:12px;font-family:Helvetica;-inkscape-font-specification:Helvetica;writing-mode:lr-tb;fill:#000000;fill-opacity:1;fill-rule:nonzero;stroke:none"
           transform="matrix(1,0,0,-1,443.15,227.5)"><tspan
             id="tspan100"
             y="0"
             x="0 6 8.6639996 12.66 15.996 22.667999 29.34 32.004002 35.34 45.335999 52.007999 58.007999 64.68 67.344002 74.015999">virtual machine</tspan></text>
</g><path
         id="path104"
         style="fill:#ffeef8;fill-opacity:1;fill-rule:nonzero;stroke:none"
         d="m 4340,1730 h 990 v 270 h -990 z" /><path
         id="path106"
         style="fill:none;stroke:#000000;stroke-width:10;stroke-linecap:round;stroke-linejoin:round;stroke-miterlimit:10;stroke-dasharray:none;stroke-opacity:1"
         d="m 4345,1725 h 990 v 270 h -990 z" /><g
         transform="scale(10)"
         id="g108"><text
           id="text112"
           style="font-variant:normal;font-weight:normal;font-size:12px;font-family:Helvetica;-inkscape-font-specification:Helvetica;writing-mode:lr-tb;fill:#000000;fill-opacity:1;fill-rule:nonzero;stroke:none"
           transform="matrix(1,0,0,-1,443.15,182.5)"><tspan
             id="tspan110"
             y="0"
             x="0 6 8.6639996 12.66 15.996 22.667999 29.34 32.004002 35.34 45.335999 52.007999 58.007999 64.68 67.344002 74.015999">virtual machine</tspan></text>
</g><path
         id="path114"
         style="fill:#ffeef8;fill-opacity:1;fill-rule:nonzero;stroke:none"
         d="m 4340,290 h 990 v 270 h -990 z" /><path
         id="path116"
         style="fill:none;stroke:#000000;stroke-width:10;stroke-linecap:round;stroke-linejoin:round;stroke-miterlimit:10;stroke-dasharray:none;stroke-opacity:1"
         d="m 4345,285 h 990 v 270 h -990 z" /><g
         transform="scale(10)"
         id="g118"><text
           id="text122"
           style="font-variant:normal;font-weight:normal;font-size:12px;font-family:Helvetica;-inkscape-font-specification:Helvetica;writing-mode:lr-tb;fill:#000000;fill-opacity:1;fill-rule:nonzero;stroke:none"
           transform="matrix(1,0,0,-1,443.15,38.5)"><tspan
             id="tspan120"
             y="0"
             x="0 6 8.6639996 12.66 15.996 22.667999 29.34 32.004002 35.34 45.335999 52.007999 58.007999 64.68 67.344002 74.015999">virtual machine</tspan></text>
</g><path
         id="path124"
         style="fill:#ffeef8;fill-opacity:1;fill-rule:nonzero;stroke:none"
         d="m 4340,650 h 990 v 270 h -990 z" /><path
         id="path126"
         style="fill:none;stroke:#000000;stroke-width:10;stroke-linecap:round;stroke-linejoin:round;stroke-miterlimit:10;stroke-dasharray:none;stroke-opacity:1"
         d="m 4345,645 h 990 v 270 h -990 z" /><g
         transform="scale(10)"
         id="g128"><text
           id="text132"
           style="font-variant:normal;font-weight:normal;font-size:12px;font-family:Helvetica;-inkscape-font-specification:Helvetica;writing-mode:lr-tb;fill:#000000;fill-opacity:1;fill-rule:nonzero;stroke:none"
           transform="matrix(1,0,0,-1,443.15,74.5)"><tspan
             id="tspan130"
             y="0"
             x="0 6 8.6639996 12.66 15.996 22.667999 29.34 32.004002 35.34 45.335999 52.007999 58.007999 64.68 67.344002 74.015999">virtual machine</tspan></text>
</g><path
         id="path134"
         style="fill:#ffeef8;fill-opacity:1;fill-rule:nonzero;stroke:none"
         d="m 4340,1010 h 990 v 270 h -990 z" /><path
         id="path136"
         style="fill:none;stroke:#000000;stroke-width:10;stroke-linecap:round;stroke-linejoin:round;stroke-miterlimit:10;stroke-dasharray:none;stroke-opacity:1"
         d="m 4345,1005 h 990 v 270 h -990 z" /><g
         transform="scale(10)"
         id="g138"><text
           id="text142"
           style="font-variant:normal;font-weight:normal;font-size:12px;font-family:Helvetica;-inkscape-font-specification:Helvetica;writing-mode:lr-tb;fill:#000000;fill-opacity:1;fill-rule:nonzero;stroke:none"
           transform="matrix(1,0,0,-1,443.15,110.5)"><tspan
             id="tspan140"
             y="0"
             x="0 6 8.6639996 12.66 15.996 22.667999 29.34 32.004002 35.34 45.335999 52.007999 58.007999 64.68 67.344002 74.015999">virtual machine</tspan></text>
</g><path
         id="path144"
         style="fill:none;stroke:#000000;stroke-width:10;stroke-linecap:round;stroke-linejoin:round;stroke-miterlimit:10;stroke-dasharray:10, 40;stroke-dashoffset:0;stroke-opacity:1"
         d="m 4340,2315 h -265 v -230 h -86" /><path
         id="path146"
         style="fill:#000000;fill-opacity:1;fill-rule:nonzero;stroke:none"
         d="m 3909,2090 80,-30 v 60 z" /><path
         id="path148"
         style="fill:none;stroke:#000000;stroke-width:10;stroke-linecap:butt;stroke-linejoin:miter;stroke-miterlimit:10;stroke-dasharray:none;stroke-opacity:1"
         d="m 3909,2090 80,-30 v 60 z" /><path
         id="path150"
         style="fill:none;stroke:#000000;stroke-width:10;stroke-linecap:round;stroke-linejoin:round;stroke-miterlimit:10;stroke-dasharray:10, 40;stroke-dashoffset:0;stroke-opacity:1"
         d="m 4340,1865 h -265 v 220 h -86" /><path
         id="path152"
         style="fill:#000000;fill-opacity:1;fill-rule:nonzero;stroke:none"
         d="m 3909,2090 80,-30 v 60 z" /><path
         id="path154"
         style="fill:none;stroke:#000000;stroke-width:10;stroke-linecap:butt;stroke-linejoin:miter;stroke-miterlimit:10;stroke-dasharray:none;stroke-opacity:1"
         d="m 3909,2090 80,-30 v 60 z" /><path
         id="path156"
         style="fill:none;stroke:#000000;stroke-width:10;stroke-linecap:round;stroke-linejoin:round;stroke-miterlimit:10;stroke-dasharray:10, 40;stroke-dashoffset:0;stroke-opacity:1"
         d="M 4340,1145 H 4075 V 785 h -86" /><path
         id="path158"
         style="fill:#000000;fill-opacity:1;fill-rule:nonzero;stroke:none"
         d="m 3909,785 80,-30 v 60 z" /><path
         id="path160"
         style="fill:none;stroke:#000000;stroke-width:10;stroke-linecap:butt;stroke-linejoin:miter;stroke-miterlimit:10;stroke-dasharray:none;stroke-opacity:1"
         d="m 3909,785 80,-30 v 60 z" /><path
         id="path162"
         style="fill:none;stroke:#000000;stroke-width:10;stroke-linecap:round;stroke-linejoin:round;stroke-miterlimit:10;stroke-dasharray:10, 40;stroke-dashoffset:0;stroke-opacity:1"
         d="m 4340,425 h -265 v 360 h -86" /><path
         id="path164"
         style="fill:#000000;fill-opacity:1;fill-rule:nonzero;stroke:none"
         d="m 3909,785 80,-30 v 60 z" /><path
         id="path166"
         style="fill:none;stroke:#000000;stroke-width:10;stroke-linecap:butt;stroke-linejoin:miter;stroke-miterlimit:10;stroke-dasharray:none;stroke-opacity:1"
         d="m 3909,785 80,-30 v 60 z" /><path
         id="path168"
         style="fill:none;stroke:#000000;stroke-width:10;stroke-linecap:round;stroke-linejoin:round;stroke-miterlimit:10;stroke-dasharray:10, 40;stroke-dashoffset:0;stroke-opacity:1"
         d="M 4340,785 H 3989" /><path
         id="path170"
         style="fill:#000000;fill-opacity:1;fill-rule:nonzero;stroke:none"
         d="m 3909,785 80,-30 v 60 z" /><path
         id="path172"
         style="fill:none;stroke:#000000;stroke-width:10;stroke-linecap:butt;stroke-linejoin:miter;stroke-miterlimit:10;stroke-dasharray:none;stroke-opacity:1"
         d="m 3909,785 80,-30 v 60 z" /><path
         id="path174"
         style="fill:#eefee2;fill-opacity:1;fill-rule:nonzero;stroke:none"
         d="m 110,2270 h 1080 v 630 H 110 Z" /><path
         id="path176"
         style="fill:none;stroke:#000000;stroke-width:10;stroke-linecap:round;stroke-linejoin:round;stroke-miterlimit:10;stroke-dasharray:none;stroke-opacity:1"
         d="m 115,2265 h 1080 v 630 H 115 Z" /><g
         transform="scale(10)"
         id="g178"><text
           id="text184"
           style="font-variant:normal;font-weight:normal;font-size:12px;font-family:Helvetica;-inkscape-font-specification:Helvetica;writing-mode:lr-tb;fill:#000000;fill-opacity:1;fill-rule:nonzero;stroke:none"
           transform="matrix(1,0,0,-1,45.9863,261.5)"><tspan
             id="tspan180"
             y="0"
             x="0 6.6719999 13.344 19.344 22.007999 28.68 31.344 38.015999">ansible </tspan><tspan
             id="tspan182"
             y="14"
             x="-17.003901 -11.0039 -4.3319001 2.3401 8.3401003 11.0041 17.004101 23.004101 29.6761 33.0121 35.676102 42.348099 49.0201">speciﬁcations</tspan></text>
</g><path
         id="path186"
         style="fill:#eefee2;fill-opacity:1;fill-rule:nonzero;stroke:none"
         d="m 200,2180 h 1080 v 630 H 200 Z" /><path
         id="path188"
         style="fill:none;stroke:#000000;stroke-width:10;stroke-linecap:round;stroke-linejoin:round;stroke-miterlimit:10;stroke-dasharray:none;stroke-opacity:1"
         d="m 205,2175 h 1080 v 630 H 205 Z" /><g
         transform="scale(10)"
         id="g190"><text
           id="text196"
           style="font-variant:normal;font-weight:normal;font-size:12px;font-family:Helvetica;-inkscape-font-specification:Helvetica;writing-mode:lr-tb;fill:#000000;fill-opacity:1;fill-rule:nonzero;stroke:none"
           transform="matrix(1,0,0,-1,54.9863,252.5)"><tspan
             id="tspan192"
             y="0"
             x="0 6.6719999 13.344 19.344 22.007999 28.68 31.344 38.015999">ansible </tspan><tspan
             id="tspan194"
             y="14"
             x="-17.003901 -11.0039 -4.3319001 2.3401 8.3401003 11.0041 17.004101 23.004101 29.6761 33.0121 35.676102 42.348099 49.0201">speciﬁcations</tspan></text>
</g><path
         id="path198"
         style="fill:#eefee2;fill-opacity:1;fill-rule:nonzero;stroke:none"
         d="m 290,2090 h 1080 v 630 H 290 Z" /><path
         id="path200"
         style="fill:none;stroke:#000000;stroke-width:10;stroke-linecap:round;stroke-linejoin:round;stroke-miterlimit:10;stroke-dasharray:none;stroke-opacity:1"
         d="m 295,2085 h 1080 v 630 H 295 Z" /><g
         transform="scale(10)"
         id="g202"><text
           id="text208"
           style="font-variant:normal;font-weight:normal;font-size:12px;font-family:Helvetica;-inkscape-font-specification:Helvetica;writing-mode:lr-tb;fill:#000000;fill-opacity:1;fill-rule:nonzero;stroke:none"
           transform="matrix(1,0,0,-1,63.9863,243.5)"><tspan
             id="tspan204"
             y="0"
             x="0 6.6719999 13.344 19.344 22.007999 28.68 31.344 38.015999">ansible </tspan><tspan
             id="tspan206"
             y="14"
             x="-17.003901 -11.0039 -4.3319001 2.3401 8.3401003 11.0041 17.004101 23.004101 29.6761 33.0121 35.676102 42.348099 49.0201">speciﬁcations</tspan></text>
</g><path
         id="path210"
         style="fill:#d7fdcf;fill-opacity:1;fill-rule:nonzero;stroke:none"
         d="m 290,1010 h 1080 v 630 H 290 Z" /><path
         id="path212"
         style="fill:none;stroke:#000000;stroke-width:10;stroke-linecap:round;stroke-linejoin:round;stroke-miterlimit:10;stroke-dasharray:none;stroke-opacity:1"
         d="m 295,1005 h 1080 v 630 H 295 Z" /><g
         transform="scale(10)"
         id="g214"><text
           id="text218"
           style="font-variant:normal;font-weight:normal;font-size:12px;font-family:Helvetica;-inkscape-font-specification:Helvetica;writing-mode:lr-tb;fill:#000000;fill-opacity:1;fill-rule:nonzero;stroke:none"
           transform="matrix(1,0,0,-1,59.3195,128.5)"><tspan
             id="tspan216"
             y="0"
             x="0 6.6719999 13.344 20.016001 24.011999 30.684 36.683998 43.355999">engraver</tspan></text>
</g><path
         id="path220"
         style="fill:none;stroke:#000000;stroke-width:10;stroke-linecap:round;stroke-linejoin:round;stroke-miterlimit:10;stroke-dasharray:none;stroke-opacity:1"
         d="m 835,1640 v 351" /><path
         id="path222"
         style="fill:#000000;fill-opacity:1;fill-rule:nonzero;stroke:none"
         d="m 830,2071 -30,-80 h 60 z" /><path
         id="path224"
         style="fill:none;stroke:#000000;stroke-width:10;stroke-linecap:butt;stroke-linejoin:miter;stroke-miterlimit:10;stroke-dasharray:none;stroke-opacity:1"
         d="m 830,2071 -30,-80 h 60 z" /><path
         id="path226"
         style="fill:none;stroke:#000000;stroke-width:10;stroke-linecap:round;stroke-linejoin:round;stroke-miterlimit:10;stroke-dasharray:none;stroke-opacity:1"
         d="m 1370,1325 h 981" /><path
         id="path228"
         style="fill:#000000;fill-opacity:1;fill-rule:nonzero;stroke:none"
         d="m 2431,1325 -80,30 v -60 z" /><path
         id="path230"
         style="fill:none;stroke:#000000;stroke-width:10;stroke-linecap:butt;stroke-linejoin:miter;stroke-miterlimit:10;stroke-dasharray:none;stroke-opacity:1"
         d="m 2431,1325 -80,30 v -60 z" /></g></g></svg>