<?xml version="1.0" encoding="UTF-8" standalone="no"?>
<svg
   xmlns:dc="http://purl.org/dc/elements/1.1/"
   xmlns:cc="http://creativecommons.org/ns#"
   xmlns:rdf="http://www.w3.org/1999/02/22-rdf-syntax-ns#"
   xmlns:svg="http://www.w3.org/2000/svg"
   xmlns="http://www.w3.org/2000/svg"
   viewBox="0 0 677.33331 821.33331"
   height="821.33331"
   width="677.33331"
   xml:space="preserve"
   id="svg2"
   version="1.1"><metadata
     id="metadata8"><rdf:RDF><cc:Work
         rdf:about=""><dc:format>image/svg+xml</dc:format><dc:type
           rdf:resource="http://purl.org/dc/dcmitype/StillImage" /></cc:Work></rdf:RDF></metadata><defs
     id="defs6" /><g
     transform="matrix(1.3333333,0,0,-1.3333333,0,821.33333)"
     id="g10"><g
       transform="scale(0.1)"
       id="g12"><path
         id="path14"
         style="fill:#ddfdc6;fill-opacity:1;fill-rule:nonzero;stroke:none"
         d="m 830,3710 h 1350 v 540 H 830 Z" /><path
         id="path16"
         style="fill:none;stroke:#000000;stroke-width:10;stroke-linecap:round;stroke-linejoin:round;stroke-miterlimit:10;stroke-dasharray:none;stroke-opacity:1"
         d="m 835,3705 h 1350 v 540 H 835 Z" /><g
         transform="scale(10)"
         id="g18"><text
           id="text22"
           style="font-variant:normal;font-weight:normal;font-size:12px;font-family:Helvetica;-inkscape-font-specification:Helvetica;writing-mode:lr-tb;fill:#000000;fill-opacity:1;fill-rule:nonzero;stroke:none"
           transform="matrix(1,0,0,-1,99.1426,394)"><tspan
             id="tspan20"
             y="0"
             x="0 6 8.6639996 15.336 21.336 24.672001 31.344 35.34 38.675999 45.348 49.344002 56.015999 62.015999 64.68 70.68 73.344002 80.015999 86.688004 89.351997 96.024002">cluster provisioning</tspan></text>
</g><path
         id="path24"
         style="fill:#ddfdc6;fill-opacity:1;fill-rule:nonzero;stroke:none"
         d="m 830,2810 h 1350 v 540 H 830 Z" /><path
         id="path26"
         style="fill:none;stroke:#000000;stroke-width:10;stroke-linecap:round;stroke-linejoin:round;stroke-miterlimit:10;stroke-dasharray:none;stroke-opacity:1"
         d="m 835,2805 h 1350 v 540 H 835 Z" /><g
         transform="scale(10)"
         id="g28"><text
           id="text32"
           style="font-variant:normal;font-weight:normal;font-size:12px;font-family:Helvetica;-inkscape-font-specification:Helvetica;writing-mode:lr-tb;fill:#000000;fill-opacity:1;fill-rule:nonzero;stroke:none"
           transform="matrix(1,0,0,-1,89.1262,304)"><tspan
             id="tspan30"
             y="0"
             x="0 6.6719999 13.344 20.016001 22.68 25.344 31.344 38.015999 41.352001 44.015999 50.688 57.360001 60.695999 67.367996 74.040001 80.711998 83.375999 90.047997 96.047997 106.044 112.716 119.388">application deployment</tspan></text>
</g><path
         id="path34"
         style="fill:none;stroke:#000000;stroke-width:10;stroke-linecap:round;stroke-linejoin:round;stroke-miterlimit:10;stroke-dasharray:none;stroke-opacity:1"
         d="M 1505,3710 V 3449" /><path
         id="path36"
         style="fill:#000000;fill-opacity:1;fill-rule:nonzero;stroke:none"
         d="m 1505,3369 30,80 h -60 z" /><path
         id="path38"
         style="fill:none;stroke:#000000;stroke-width:10;stroke-linecap:butt;stroke-linejoin:miter;stroke-miterlimit:10;stroke-dasharray:none;stroke-opacity:1"
         d="m 1505,3369 30,80 h -60 z" /><path
         id="path40"
         style="fill:#ddfdc6;fill-opacity:1;fill-rule:nonzero;stroke:none"
         d="m 830,1910 h 1350 v 540 H 830 Z" /><path
         id="path42"
         style="fill:none;stroke:#000000;stroke-width:10;stroke-linecap:round;stroke-linejoin:round;stroke-miterlimit:10;stroke-dasharray:none;stroke-opacity:1"
         d="m 835,1905 h 1350 v 540 H 835 Z" /><g
         transform="scale(10)"
         id="g44"><text
           id="text48"
           style="font-variant:normal;font-weight:normal;font-size:12px;font-family:Helvetica;-inkscape-font-specification:Helvetica;writing-mode:lr-tb;fill:#000000;fill-opacity:1;fill-rule:nonzero;stroke:none"
           transform="matrix(1,0,0,-1,110.809,214)"><tspan
             id="tspan46"
             y="0"
             x="0 2.6698594 9.3418598 16.013859 19.349859 25.349859 32.021858 38.693859 48.689857 51.353859 57.353859 63.353859 66.01786 72.689857">job submission</tspan></text>
</g><path
         id="path50"
         style="fill:#ddfdc6;fill-opacity:1;fill-rule:nonzero;stroke:none"
         d="m 830,5510 h 1350 v 540 H 830 Z" /><path
         id="path52"
         style="fill:none;stroke:#000000;stroke-width:10;stroke-linecap:round;stroke-linejoin:round;stroke-miterlimit:10;stroke-dasharray:none;stroke-opacity:1"
         d="m 835,5505 h 1350 v 540 H 835 Z" /><g
         transform="scale(10)"
         id="g54"><text
           id="text58"
           style="font-variant:normal;font-weight:normal;font-size:12px;font-family:Helvetica;-inkscape-font-specification:Helvetica;writing-mode:lr-tb;fill:#000000;fill-opacity:1;fill-rule:nonzero;stroke:none"
           transform="matrix(1,0,0,-1,102.137,574)"><tspan
             id="tspan56"
             y="0"
             x="0 2.664 9.3360004 15.336 22.007999 24.672001 28.007999 34.68 41.352001 47.352001 54.023998 56.688 63.360001 70.031998 80.028 86.699997 93.372002">local development</tspan></text>
</g><path
         id="path60"
         style="fill:#ddfdc6;fill-opacity:1;fill-rule:nonzero;stroke:none"
         d="m 830,4610 h 1350 v 540 H 830 Z" /><path
         id="path62"
         style="fill:none;stroke:#000000;stroke-width:10;stroke-linecap:round;stroke-linejoin:round;stroke-miterlimit:10;stroke-dasharray:none;stroke-opacity:1"
         d="m 835,4605 h 1350 v 540 H 835 Z" /><g
         transform="scale(10)"
         id="g64"><text
           id="text68"
           style="font-variant:normal;font-weight:normal;font-size:12px;font-family:Helvetica;-inkscape-font-specification:Helvetica;writing-mode:lr-tb;fill:#000000;fill-opacity:1;fill-rule:nonzero;stroke:none"
           transform="matrix(1,0,0,-1,96.7961,484)"><tspan
             id="tspan66"
             y="0"
             x="0 6 12.672 19.344 25.344 32.015999 38.688 42.683998 49.355999 52.692001 55.355999 62.028 68.699997 72.036003 78.708 85.379997 91.379997 94.043999 100.716">conﬁguration design</tspan></text>
</g><path
         id="path70"
         style="fill:none;stroke:#000000;stroke-width:10;stroke-linecap:round;stroke-linejoin:round;stroke-miterlimit:10;stroke-dasharray:none;stroke-opacity:1"
         d="M 1505,5510 V 5249" /><path
         id="path72"
         style="fill:#000000;fill-opacity:1;fill-rule:nonzero;stroke:none"
         d="m 1505,5169 30,80 h -60 z" /><path
         id="path74"
         style="fill:none;stroke:#000000;stroke-width:10;stroke-linecap:butt;stroke-linejoin:miter;stroke-miterlimit:10;stroke-dasharray:none;stroke-opacity:1"
         d="m 1505,5169 30,80 h -60 z" /><path
         id="path76"
         style="fill:none;stroke:#000000;stroke-width:10;stroke-linecap:round;stroke-linejoin:round;stroke-miterlimit:10;stroke-dasharray:none;stroke-opacity:1"
         d="M 1505,4610 V 4349" /><path
         id="path78"
         style="fill:#000000;fill-opacity:1;fill-rule:nonzero;stroke:none"
         d="m 1505,4269 30,80 h -60 z" /><path
         id="path80"
         style="fill:none;stroke:#000000;stroke-width:10;stroke-linecap:butt;stroke-linejoin:miter;stroke-miterlimit:10;stroke-dasharray:none;stroke-opacity:1"
         d="m 1505,4269 30,80 h -60 z" /><path
         id="path82"
         style="fill:none;stroke:#000000;stroke-width:10;stroke-linecap:round;stroke-linejoin:round;stroke-miterlimit:10;stroke-dasharray:none;stroke-opacity:1"
         d="M 1505,2810 V 2549" /><path
         id="path84"
         style="fill:#000000;fill-opacity:1;fill-rule:nonzero;stroke:none"
         d="m 1505,2469 30,80 h -60 z" /><path
         id="path86"
         style="fill:none;stroke:#000000;stroke-width:10;stroke-linecap:butt;stroke-linejoin:miter;stroke-miterlimit:10;stroke-dasharray:none;stroke-opacity:1"
         d="m 1505,2469 30,80 h -60 z" /><path
         id="path88"
         style="fill:#dcfefc;fill-opacity:1;fill-rule:nonzero;stroke:none"
         d="m 2810,5600 h 2160 v 360 H 2810 Z" /><path
         id="path90"
         style="fill:none;stroke:#000000;stroke-width:10;stroke-linecap:round;stroke-linejoin:round;stroke-miterlimit:10;stroke-dasharray:none;stroke-opacity:1"
         d="m 2815,5595 h 2160 v 360 H 2815 Z" /><g
         transform="scale(10)"
         id="g92"><text
           id="text96"
           style="font-variant:normal;font-weight:normal;font-size:12px;font-family:AndaleMono;-inkscape-font-specification:AndaleMono;writing-mode:lr-tb;fill:#000000;fill-opacity:1;fill-rule:nonzero;stroke:none"
           transform="matrix(1,0,0,-1,286,574)"><tspan
             id="tspan94"
             y="0"
             x="0 7.1999998 14.4 21.6 28.799999 36 43.200001 50.400002 57.599998 64.800003 72 79.199997 86.400002 93.599998 100.8">$ engraver init</tspan></text>
</g><path
         id="path98"
         style="fill:#dcfefc;fill-opacity:1;fill-rule:nonzero;stroke:none"
         d="m 2810,4700 h 2160 v 360 H 2810 Z" /><path
         id="path100"
         style="fill:none;stroke:#000000;stroke-width:10;stroke-linecap:round;stroke-linejoin:round;stroke-miterlimit:10;stroke-dasharray:none;stroke-opacity:1"
         d="m 2815,4695 h 2160 v 360 H 2815 Z" /><g
         transform="scale(10)"
         id="g102"><text
           id="text106"
           style="font-variant:normal;font-weight:normal;font-size:12px;font-family:AndaleMono;-inkscape-font-specification:AndaleMono;writing-mode:lr-tb;fill:#000000;fill-opacity:1;fill-rule:nonzero;stroke:none"
           transform="matrix(1,0,0,-1,286,484)"><tspan
             id="tspan104"
             y="0"
             x="0 7.1999998 14.4 21.6 28.799999 36 43.200001 50.400002 57.599998 64.800003 72 79.199997 86.400002 93.599998 100.8 108 115.2 122.4 129.60001 136.8 144 151.2">$ engraver cluster new</tspan></text>
</g><path
         id="path108"
         style="fill:#dcfefc;fill-opacity:1;fill-rule:nonzero;stroke:none"
         d="m 2810,3800 h 2160 v 360 H 2810 Z" /><path
         id="path110"
         style="fill:none;stroke:#000000;stroke-width:10;stroke-linecap:round;stroke-linejoin:round;stroke-miterlimit:10;stroke-dasharray:none;stroke-opacity:1"
         d="m 2815,3795 h 2160 v 360 H 2815 Z" /><g
         transform="scale(10)"
         id="g112"><text
           id="text116"
           style="font-variant:normal;font-weight:normal;font-size:12px;font-family:AndaleMono;-inkscape-font-specification:AndaleMono;writing-mode:lr-tb;fill:#000000;fill-opacity:1;fill-rule:nonzero;stroke:none"
           transform="matrix(1,0,0,-1,286,394)"><tspan
             id="tspan114"
             y="0"
             x="0 7.1999998 14.4 21.6 28.799999 36 43.200001 50.400002 57.599998 64.800003 72 79.199997 86.400002 93.599998 100.8 108 115.2 122.4 129.60001 136.8 144 151.2 158.39999 165.60001 172.8 180 187.2 194.39999">$ engraver cluster provision</tspan></text>
</g><path
         id="path118"
         style="fill:#dcfefc;fill-opacity:1;fill-rule:nonzero;stroke:none"
         d="m 2810,2900 h 2160 v 360 H 2810 Z" /><path
         id="path120"
         style="fill:none;stroke:#000000;stroke-width:10;stroke-linecap:round;stroke-linejoin:round;stroke-miterlimit:10;stroke-dasharray:none;stroke-opacity:1"
         d="m 2815,2895 h 2160 v 360 H 2815 Z" /><g
         transform="scale(10)"
         id="g122"><text
           id="text126"
           style="font-variant:normal;font-weight:normal;font-size:12px;font-family:AndaleMono;-inkscape-font-specification:AndaleMono;writing-mode:lr-tb;fill:#000000;fill-opacity:1;fill-rule:nonzero;stroke:none"
           transform="matrix(1,0,0,-1,286,304)"><tspan
             id="tspan124"
             y="0"
             x="0 7.1999998 14.4 21.6 28.799999 36 43.200001 50.400002 57.599998 64.800003 72 79.199997 86.400002 93.599998 100.8 108 115.2">$ engraver deploy</tspan></text>
</g><path
         id="path128"
         style="fill:#dcfefc;fill-opacity:1;fill-rule:nonzero;stroke:none"
         d="m 2810,2000 h 2160 v 360 H 2810 Z" /><path
         id="path130"
         style="fill:none;stroke:#000000;stroke-width:10;stroke-linecap:round;stroke-linejoin:round;stroke-miterlimit:10;stroke-dasharray:none;stroke-opacity:1"
         d="m 2815,1995 h 2160 v 360 H 2815 Z" /><g
         transform="scale(10)"
         id="g132"><text
           id="text136"
           style="font-variant:normal;font-weight:normal;font-size:12px;font-family:AndaleMono;-inkscape-font-specification:AndaleMono;writing-mode:lr-tb;fill:#000000;fill-opacity:1;fill-rule:nonzero;stroke:none"
           transform="matrix(1,0,0,-1,286,214)"><tspan
             id="tspan134"
             y="0"
             x="0 7.1999998 14.4 21.6 28.799999 36 43.200001 50.400002 57.599998 64.800003 72 79.199997 86.400002 93.599998 100.8 108 115.2 122.4 129.60001 136.8 144">$ engraver job submit</tspan></text>
</g><path
         id="path138"
         style="fill:#ddfdc6;fill-opacity:1;fill-rule:nonzero;stroke:none"
         d="M 830,110 H 2180 V 650 H 830 Z" /><path
         id="path140"
         style="fill:none;stroke:#000000;stroke-width:10;stroke-linecap:round;stroke-linejoin:round;stroke-miterlimit:10;stroke-dasharray:none;stroke-opacity:1"
         d="M 835,105 H 2185 V 645 H 835 Z" /><g
         transform="scale(10)"
         id="g142"><text
           id="text146"
           style="font-variant:normal;font-weight:normal;font-size:12px;font-family:Helvetica;-inkscape-font-specification:Helvetica;writing-mode:lr-tb;fill:#000000;fill-opacity:1;fill-rule:nonzero;stroke:none"
           transform="matrix(1,0,0,-1,125.818,34)"><tspan
             id="tspan144"
             y="0"
             x="0 3.336 10.008 16.68 20.676001 27.348 34.02 42.683998">teardown</tspan></text>
</g><path
         id="path148"
         style="fill:#dcfefc;fill-opacity:1;fill-rule:nonzero;stroke:none"
         d="M 2810,200 H 4970 V 560 H 2810 Z" /><path
         id="path150"
         style="fill:none;stroke:#000000;stroke-width:10;stroke-linecap:round;stroke-linejoin:round;stroke-miterlimit:10;stroke-dasharray:none;stroke-opacity:1"
         d="M 2815,195 H 4975 V 555 H 2815 Z" /><g
         transform="scale(10)"
         id="g152"><text
           id="text156"
           style="font-variant:normal;font-weight:normal;font-size:12px;font-family:AndaleMono;-inkscape-font-specification:AndaleMono;writing-mode:lr-tb;fill:#000000;fill-opacity:1;fill-rule:nonzero;stroke:none"
           transform="matrix(1,0,0,-1,286,34)"><tspan
             id="tspan154"
             y="0"
             x="0 7.1999998 14.4 21.6 28.799999 36 43.200001 50.400002 57.599998 64.800003 72 79.199997 86.400002 93.599998 100.8 108 115.2 122.4 129.60001 136.8 144 151.2 158.39999 165.60001 172.8 180 187.2">$ engraver cluster teardown</tspan></text>
</g><path
         id="path158"
         style="fill:none;stroke:#000000;stroke-width:10;stroke-linecap:round;stroke-linejoin:round;stroke-miterlimit:10;stroke-dasharray:10, 40;stroke-dashoffset:0;stroke-opacity:1"
         d="m 2180,5775 h 531" /><path
         id="path160"
         style="fill:#000000;fill-opacity:1;fill-rule:nonzero;stroke:none"
         d="m 2791,5780 -80,30 v -60 z" /><path
         id="path162"
         style="fill:none;stroke:#000000;stroke-width:10;stroke-linecap:butt;stroke-linejoin:miter;stroke-miterlimit:10;stroke-dasharray:none;stroke-opacity:1"
         d="m 2791,5780 -80,30 v -60 z" /><path
         id="path164"
         style="fill:none;stroke:#000000;stroke-width:10;stroke-linecap:round;stroke-linejoin:round;stroke-miterlimit:10;stroke-dasharray:10, 40;stroke-dashoffset:0;stroke-opacity:1"
         d="m 2180,4875 h 531" /><path
         id="path166"
         style="fill:#000000;fill-opacity:1;fill-rule:nonzero;stroke:none"
         d="m 2791,4880 -80,30 v -60 z" /><path
         id="path168"
         style="fill:none;stroke:#000000;stroke-width:10;stroke-linecap:butt;stroke-linejoin:miter;stroke-miterlimit:10;stroke-dasharray:none;stroke-opacity:1"
         d="m 2791,4880 -80,30 v -60 z" /><path
         id="path170"
         style="fill:none;stroke:#000000;stroke-width:10;stroke-linecap:round;stroke-linejoin:round;stroke-miterlimit:10;stroke-dasharray:10, 40;stroke-dashoffset:0;stroke-opacity:1"
         d="m 2180,3975 h 531" /><path
         id="path172"
         style="fill:#000000;fill-opacity:1;fill-rule:nonzero;stroke:none"
         d="m 2791,3980 -80,30 v -60 z" /><path
         id="path174"
         style="fill:none;stroke:#000000;stroke-width:10;stroke-linecap:butt;stroke-linejoin:miter;stroke-miterlimit:10;stroke-dasharray:none;stroke-opacity:1"
         d="m 2791,3980 -80,30 v -60 z" /><path
         id="path176"
         style="fill:none;stroke:#000000;stroke-width:10;stroke-linecap:round;stroke-linejoin:round;stroke-miterlimit:10;stroke-dasharray:10, 40;stroke-dashoffset:0;stroke-opacity:1"
         d="m 2180,3075 h 531" /><path
         id="path178"
         style="fill:#000000;fill-opacity:1;fill-rule:nonzero;stroke:none"
         d="m 2791,3080 -80,30 v -60 z" /><path
         id="path180"
         style="fill:none;stroke:#000000;stroke-width:10;stroke-linecap:butt;stroke-linejoin:miter;stroke-miterlimit:10;stroke-dasharray:none;stroke-opacity:1"
         d="m 2791,3080 -80,30 v -60 z" /><path
         id="path182"
         style="fill:none;stroke:#000000;stroke-width:10;stroke-linecap:round;stroke-linejoin:round;stroke-miterlimit:10;stroke-dasharray:10, 40;stroke-dashoffset:0;stroke-opacity:1"
         d="m 2180,2175 h 531" /><path
         id="path184"
         style="fill:#000000;fill-opacity:1;fill-rule:nonzero;stroke:none"
         d="m 2791,2180 -80,30 v -60 z" /><path
         id="path186"
         style="fill:none;stroke:#000000;stroke-width:10;stroke-linecap:butt;stroke-linejoin:miter;stroke-miterlimit:10;stroke-dasharray:none;stroke-opacity:1"
         d="m 2791,2180 -80,30 v -60 z" /><path
         id="path188"
         style="fill:none;stroke:#000000;stroke-width:10;stroke-linecap:round;stroke-linejoin:round;stroke-miterlimit:10;stroke-dasharray:10, 40;stroke-dashoffset:0;stroke-opacity:1"
         d="m 2180,375 h 531" /><path
         id="path190"
         style="fill:#000000;fill-opacity:1;fill-rule:nonzero;stroke:none"
         d="m 2791,380 -80,30 v -60 z" /><path
         id="path192"
         style="fill:none;stroke:#000000;stroke-width:10;stroke-linecap:butt;stroke-linejoin:miter;stroke-miterlimit:10;stroke-dasharray:none;stroke-opacity:1"
         d="m 2791,380 -80,30 v -60 z" /><path
         id="path194"
         style="fill:none;stroke:#000000;stroke-width:10;stroke-linecap:round;stroke-linejoin:round;stroke-miterlimit:10;stroke-dasharray:none;stroke-opacity:1"
         d="M 1505,1910 V 1649" /><path
         id="path196"
         style="fill:#000000;fill-opacity:1;fill-rule:nonzero;stroke:none"
         d="m 1505,1569 30,80 h -60 z" /><path
         id="path198"
         style="fill:none;stroke:#000000;stroke-width:10;stroke-linecap:butt;stroke-linejoin:miter;stroke-miterlimit:10;stroke-dasharray:none;stroke-opacity:1"
         d="m 1505,1569 30,80 h -60 z" /><path
         id="path200"
         style="fill:none;stroke:#000000;stroke-width:10;stroke-linecap:round;stroke-linejoin:round;stroke-miterlimit:10;stroke-dasharray:none;stroke-opacity:1"
         d="M 830,375 H 115 v 5400 h 616" /><path
         id="path202"
         style="fill:#000000;fill-opacity:1;fill-rule:nonzero;stroke:none"
         d="m 811,5780 -80,30 v -60 z" /><path
         id="path204"
         style="fill:none;stroke:#000000;stroke-width:10;stroke-linecap:butt;stroke-linejoin:miter;stroke-miterlimit:10;stroke-dasharray:none;stroke-opacity:1"
         d="m 811,5780 -80,30 v -60 z" /><path
         id="path206"
         style="fill:#ddfdc6;fill-opacity:1;fill-rule:nonzero;stroke:none"
         d="m 830,1010 h 1350 v 540 H 830 Z" /><path
         id="path208"
         style="fill:none;stroke:#000000;stroke-width:10;stroke-linecap:round;stroke-linejoin:round;stroke-miterlimit:10;stroke-dasharray:none;stroke-opacity:1"
         d="m 835,1005 h 1350 v 540 H 835 Z" /><g
         transform="scale(10)"
         id="g210"><text
           id="text214"
           style="font-variant:normal;font-weight:normal;font-size:12px;font-family:Helvetica;-inkscape-font-specification:Helvetica;writing-mode:lr-tb;fill:#000000;fill-opacity:1;fill-rule:nonzero;stroke:none"
           transform="matrix(1,0,0,-1,136.493,124)"><tspan
             id="tspan212"
             y="0"
             x="0 6 12 18.672001 21.336">scale</tspan></text>
</g><path
         id="path216"
         style="fill:#dcfefc;fill-opacity:1;fill-rule:nonzero;stroke:none"
         d="m 2810,1100 h 2160 v 360 H 2810 Z" /><path
         id="path218"
         style="fill:none;stroke:#000000;stroke-width:10;stroke-linecap:round;stroke-linejoin:round;stroke-miterlimit:10;stroke-dasharray:none;stroke-opacity:1"
         d="m 2815,1095 h 2160 v 360 H 2815 Z" /><g
         transform="scale(10)"
         id="g220"><text
           id="text224"
           style="font-variant:normal;font-weight:normal;font-size:12px;font-family:AndaleMono;-inkscape-font-specification:AndaleMono;writing-mode:lr-tb;fill:#000000;fill-opacity:1;fill-rule:nonzero;stroke:none"
           transform="matrix(1,0,0,-1,286,124)"><tspan
             id="tspan222"
             y="0"
             x="0 7.1999998 14.4 21.6 28.799999 36 43.200001 50.400002 57.599998 64.800003 72 79.199997 86.400002 93.599998 100.8 108 115.2 122.4 129.60001 136.8 144 151.2 158.39999 165.60001 172.8">$ engraver machines scale</tspan></text>
</g><path
         id="path226"
         style="fill:none;stroke:#000000;stroke-width:10;stroke-linecap:round;stroke-linejoin:round;stroke-miterlimit:10;stroke-dasharray:10, 40;stroke-dashoffset:0;stroke-opacity:1"
         d="m 2180,1275 h 531" /><path
         id="path228"
         style="fill:#000000;fill-opacity:1;fill-rule:nonzero;stroke:none"
         d="m 2791,1280 -80,30 v -60 z" /><path
         id="path230"
         style="fill:none;stroke:#000000;stroke-width:10;stroke-linecap:butt;stroke-linejoin:miter;stroke-miterlimit:10;stroke-dasharray:none;stroke-opacity:1"
         d="m 2791,1280 -80,30 v -60 z" /><path
         id="path232"
         style="fill:none;stroke:#000000;stroke-width:10;stroke-linecap:round;stroke-linejoin:round;stroke-miterlimit:10;stroke-dasharray:none;stroke-opacity:1"
         d="M 1505,1010 V 749" /><path
         id="path234"
         style="fill:#000000;fill-opacity:1;fill-rule:nonzero;stroke:none"
         d="m 1505,669 30,80 h -60 z" /><path
         id="path236"
         style="fill:none;stroke:#000000;stroke-width:10;stroke-linecap:butt;stroke-linejoin:miter;stroke-miterlimit:10;stroke-dasharray:none;stroke-opacity:1"
         d="m 1505,669 30,80 h -60 z" /></g></g></svg>