<?xml version="1.0" encoding="UTF-8" standalone="no"?>
<svg
   xmlns:dc="http://purl.org/dc/elements/1.1/"
   xmlns:cc="http://creativecommons.org/ns#"
   xmlns:rdf="http://www.w3.org/1999/02/22-rdf-syntax-ns#"
   xmlns:svg="http://www.w3.org/2000/svg"
   xmlns="http://www.w3.org/2000/svg"
   viewBox="0 0 893.33331 785.33331"
   height="785.33331"
   width="893.33331"
   xml:space="preserve"
   id="svg2"
   version="1.1"><metadata
     id="metadata8"><rdf:RDF><cc:Work
         rdf:about=""><dc:format>image/svg+xml</dc:format><dc:type
           rdf:resource="http://purl.org/dc/dcmitype/StillImage" /></cc:Work></rdf:RDF></metadata><defs
     id="defs6" /><g
     transform="matrix(1.3333333,0,0,-1.3333333,0,785.33333)"
     id="g10"><g
       transform="scale(0.1)"
       id="g12"><path
         id="path14"
         style="fill:#effef5;fill-opacity:1;fill-rule:nonzero;stroke:none"
         d="M 3350,3980 H 6590 V 5780 H 3350 Z" /><path
         id="path16"
         style="fill:none;stroke:#000000;stroke-width:10;stroke-linecap:round;stroke-linejoin:round;stroke-miterlimit:10;stroke-dasharray:none;stroke-opacity:1"
         d="M 3355,3975 H 6595 V 5775 H 3355 Z" /><g
         transform="scale(10)"
         id="g18"><text
           id="text22"
           style="font-variant:normal;font-weight:bold;font-size:12px;font-family:Helvetica;-inkscape-font-specification:Helvetica-Bold;writing-mode:lr-tb;fill:#000000;fill-opacity:1;fill-rule:nonzero;stroke:none"
           transform="matrix(1,0,0,-1,340,562)"><tspan
             id="tspan20"
             y="0"
             x="0 9.3360004 16.667999 23.34 30.011999 33.348 41.352001 46.02 53.352001 60.683998 64.019997">Onyx Proﬁle</tspan></text>
</g><path
         id="path24"
         style="fill:#d7fcb7;fill-opacity:1;fill-rule:nonzero;stroke:none"
         d="m 3530,4160 h 1260 v 360 H 3530 Z" /><path
         id="path26"
         style="fill:none;stroke:#000000;stroke-width:10;stroke-linecap:round;stroke-linejoin:round;stroke-miterlimit:10;stroke-dasharray:none;stroke-opacity:1"
         d="m 3535,4155 h 1260 v 360 H 3535 Z" /><g
         transform="scale(10)"
         id="g28"><text
           id="text32"
           style="font-variant:normal;font-weight:normal;font-size:12px;font-family:Helvetica;-inkscape-font-specification:Helvetica;writing-mode:lr-tb;fill:#000000;fill-opacity:1;fill-rule:nonzero;stroke:none"
           transform="matrix(1,0,0,-1,403.326,430)"><tspan
             id="tspan30"
             y="0"
             x="0 6.6719999 13.344 19.344">onyx</tspan></text>
</g><path
         id="path34"
         style="fill:#d7fcb7;fill-opacity:1;fill-rule:nonzero;stroke:none"
         d="m 3530,5060 h 1260 v 360 H 3530 Z" /><path
         id="path36"
         style="fill:none;stroke:#000000;stroke-width:10;stroke-linecap:round;stroke-linejoin:round;stroke-miterlimit:10;stroke-dasharray:none;stroke-opacity:1"
         d="m 3535,5055 h 1260 v 360 H 3535 Z" /><g
         transform="scale(10)"
         id="g38"><text
           id="text42"
           style="font-variant:normal;font-weight:normal;font-size:12px;font-family:Helvetica;-inkscape-font-specification:Helvetica;writing-mode:lr-tb;fill:#000000;fill-opacity:1;fill-rule:nonzero;stroke:none"
           transform="matrix(1,0,0,-1,387.98,520)"><tspan
             id="tspan40"
             y="0"
             x="0 6 12.672 19.344 25.344 32.015999 38.688 45.360001 52.032001">zookeeper</tspan></text>
</g><path
         id="path44"
         style="fill:#d7fcb7;fill-opacity:1;fill-rule:nonzero;stroke:none"
         d="m 3530,4610 h 1260 v 360 H 3530 Z" /><path
         id="path46"
         style="fill:none;stroke:#000000;stroke-width:10;stroke-linecap:round;stroke-linejoin:round;stroke-miterlimit:10;stroke-dasharray:none;stroke-opacity:1"
         d="m 3535,4605 h 1260 v 360 H 3535 Z" /><g
         transform="scale(10)"
         id="g48"><text
           id="text52"
           style="font-variant:normal;font-weight:normal;font-size:12px;font-family:Helvetica;-inkscape-font-specification:Helvetica;writing-mode:lr-tb;fill:#000000;fill-opacity:1;fill-rule:nonzero;stroke:none"
           transform="matrix(1,0,0,-1,384.644,475)"><tspan
             id="tspan50"
             y="0"
             x="0 6.6719999 13.344 20.016001 26.016001 32.015999 38.688 45.360001 52.032001 58.703999">bookkeeper</tspan></text>
</g><path
         id="path54"
         style="fill:#effef5;fill-opacity:1;fill-rule:nonzero;stroke:none"
         d="M 3350,110 H 6590 V 1820 H 3350 Z" /><path
         id="path56"
         style="fill:none;stroke:#000000;stroke-width:10;stroke-linecap:round;stroke-linejoin:round;stroke-miterlimit:10;stroke-dasharray:none;stroke-opacity:1"
         d="M 3355,105 H 6595 V 1815 H 3355 Z" /><g
         transform="scale(10)"
         id="g58"><text
           id="text62"
           style="font-variant:normal;font-weight:bold;font-size:12px;font-family:Helvetica;-inkscape-font-specification:Helvetica-Bold;writing-mode:lr-tb;fill:#000000;fill-opacity:1;fill-rule:nonzero;stroke:none"
           transform="matrix(1,0,0,-1,340,166)"><tspan
             id="tspan60"
             y="0"
             x="0 3.336 10.668 18 24.672001 31.344 35.34 38.675999 46.007999 53.34 56.675999 64.68 69.348 76.68 84.012001 87.348">Ingestion Proﬁle</tspan></text>
</g><path
         id="path64"
         style="fill:#ffe7fb;fill-opacity:1;fill-rule:nonzero;stroke:none"
         d="m 3530,1100 h 1260 v 360 H 3530 Z" /><path
         id="path66"
         style="fill:none;stroke:#000000;stroke-width:10;stroke-linecap:round;stroke-linejoin:round;stroke-miterlimit:10;stroke-dasharray:none;stroke-opacity:1"
         d="m 3535,1095 h 1260 v 360 H 3535 Z" /><g
         transform="scale(10)"
         id="g68"><text
           id="text72"
           style="font-variant:normal;font-weight:normal;font-size:12px;font-family:Helvetica;-inkscape-font-specification:Helvetica;writing-mode:lr-tb;fill:#000000;fill-opacity:1;fill-rule:nonzero;stroke:none"
           transform="matrix(1,0,0,-1,401.659,124)"><tspan
             id="tspan70"
             y="0"
             x="0 6 12.672 16.007999 22.007999">kafka</tspan></text>
</g><path
         id="path74"
         style="fill:#effef5;fill-opacity:1;fill-rule:nonzero;stroke:none"
         d="m 1723.21,4249.61 c 369.05,-720.52 369.05,-1888.7 0,-2609.22 -369.04,-720.523 -967.382,-720.523 -1336.425,0 -369.0467,720.52 -369.0467,1888.7 0,2609.22 369.043,720.52 967.385,720.52 1336.425,0" /><path
         id="path76"
         style="fill:none;stroke:#000000;stroke-width:10;stroke-linecap:round;stroke-linejoin:round;stroke-miterlimit:10;stroke-dasharray:none;stroke-opacity:1"
         d="m 1723.21,4249.61 c 369.05,-720.52 369.05,-1888.7 0,-2609.22 -369.04,-720.523 -967.382,-720.523 -1336.425,0 -369.0467,720.52 -369.0467,1888.7 0,2609.22 369.043,720.52 967.385,720.52 1336.425,0" /><g
         transform="scale(10)"
         id="g78"><text
           id="text82"
           style="font-variant:normal;font-weight:bold;font-size:12px;font-family:Helvetica;-inkscape-font-specification:Helvetica-Bold;writing-mode:lr-tb;fill:#000000;fill-opacity:1;fill-rule:nonzero;stroke:none"
           transform="matrix(1,0,0,-1,73.8184,407.65)"><tspan
             id="tspan80"
             y="0"
             x="0 7.3319998 14.004 20.676001 24.011999 30.684 34.02 41.352001 48.023998 52.02 58.692001">dev cluster</tspan></text>
</g><path
         id="path84"
         style="fill:#d7fcb7;fill-opacity:1;fill-rule:nonzero;stroke:none"
         d="m 560,3530 h 450 v 180 H 560 Z" /><path
         id="path86"
         style="fill:none;stroke:#000000;stroke-width:10;stroke-linecap:round;stroke-linejoin:round;stroke-miterlimit:10;stroke-dasharray:none;stroke-opacity:1"
         d="m 565,3525 h 450 v 180 H 565 Z" /><path
         id="path88"
         style="fill:#d7fcb7;fill-opacity:1;fill-rule:nonzero;stroke:none"
         d="m 560,3260 h 450 v 180 H 560 Z" /><path
         id="path90"
         style="fill:none;stroke:#000000;stroke-width:10;stroke-linecap:round;stroke-linejoin:round;stroke-miterlimit:10;stroke-dasharray:none;stroke-opacity:1"
         d="m 565,3255 h 450 v 180 H 565 Z" /><path
         id="path92"
         style="fill:#d7fcb7;fill-opacity:1;fill-rule:nonzero;stroke:none"
         d="m 560,2990 h 450 v 180 H 560 Z" /><path
         id="path94"
         style="fill:none;stroke:#000000;stroke-width:10;stroke-linecap:round;stroke-linejoin:round;stroke-miterlimit:10;stroke-dasharray:none;stroke-opacity:1"
         d="m 565,2985 h 450 v 180 H 565 Z" /><path
         id="path96"
         style="fill:#ffe7fb;fill-opacity:1;fill-rule:nonzero;stroke:none"
         d="m 560,2450 h 450 v 180 H 560 Z" /><path
         id="path98"
         style="fill:none;stroke:#000000;stroke-width:10;stroke-linecap:round;stroke-linejoin:round;stroke-miterlimit:10;stroke-dasharray:none;stroke-opacity:1"
         d="m 565,2445 h 450 v 180 H 565 Z" /><path
         id="path100"
         style="fill:#d7fcb7;fill-opacity:1;fill-rule:nonzero;stroke:none"
         d="m 1100,3530 h 450 v 180 h -450 z" /><path
         id="path102"
         style="fill:none;stroke:#000000;stroke-width:10;stroke-linecap:round;stroke-linejoin:round;stroke-miterlimit:10;stroke-dasharray:none;stroke-opacity:1"
         d="m 1105,3525 h 450 v 180 h -450 z" /><path
         id="path104"
         style="fill:#d7fcb7;fill-opacity:1;fill-rule:nonzero;stroke:none"
         d="m 1100,3260 h 450 v 180 h -450 z" /><path
         id="path106"
         style="fill:none;stroke:#000000;stroke-width:10;stroke-linecap:round;stroke-linejoin:round;stroke-miterlimit:10;stroke-dasharray:none;stroke-opacity:1"
         d="m 1105,3255 h 450 v 180 h -450 z" /><path
         id="path108"
         style="fill:#d7fcb7;fill-opacity:1;fill-rule:nonzero;stroke:none"
         d="m 1100,2990 h 450 v 180 h -450 z" /><path
         id="path110"
         style="fill:none;stroke:#000000;stroke-width:10;stroke-linecap:round;stroke-linejoin:round;stroke-miterlimit:10;stroke-dasharray:none;stroke-opacity:1"
         d="m 1105,2985 h 450 v 180 h -450 z" /><path
         id="path112"
         style="fill:#ffe7fb;fill-opacity:1;fill-rule:nonzero;stroke:none"
         d="m 560,2180 h 450 v 180 H 560 Z" /><path
         id="path114"
         style="fill:none;stroke:#000000;stroke-width:10;stroke-linecap:round;stroke-linejoin:round;stroke-miterlimit:10;stroke-dasharray:none;stroke-opacity:1"
         d="m 565,2175 h 450 v 180 H 565 Z" /><path
         id="path116"
         style="fill:#ffe7fb;fill-opacity:1;fill-rule:nonzero;stroke:none"
         d="m 560,1910 h 450 v 180 H 560 Z" /><path
         id="path118"
         style="fill:none;stroke:#000000;stroke-width:10;stroke-linecap:round;stroke-linejoin:round;stroke-miterlimit:10;stroke-dasharray:none;stroke-opacity:1"
         d="m 565,1905 h 450 v 180 H 565 Z" /><path
         id="path120"
         style="fill:none;stroke:#000000;stroke-width:10;stroke-linecap:round;stroke-linejoin:round;stroke-miterlimit:10;stroke-dasharray:10, 40;stroke-dashoffset:0;stroke-opacity:1"
         d="M 3350,4320 1643.57,3730.12" /><path
         id="path122"
         style="fill:#000000;fill-opacity:1;fill-rule:nonzero;stroke:none"
         d="m 1567.96,3703.98 85.41,-2.21 -19.6,56.71 z" /><path
         id="path124"
         style="fill:none;stroke:#000000;stroke-width:10;stroke-linecap:butt;stroke-linejoin:miter;stroke-miterlimit:10;stroke-dasharray:none;stroke-opacity:1"
         d="m 1567.96,3703.98 85.41,-2.21 -19.6,56.71 z" /><path
         id="path126"
         style="fill:none;stroke:#000000;stroke-width:10;stroke-linecap:round;stroke-linejoin:round;stroke-miterlimit:10;stroke-dasharray:10, 40;stroke-dashoffset:0;stroke-opacity:1"
         d="M 3350,1365.64 1106.11,1920.59" /><path
         id="path128"
         style="fill:#000000;fill-opacity:1;fill-rule:nonzero;stroke:none"
         d="m 1028.45,1939.79 70.45,-48.33 14.41,58.25 z" /><path
         id="path130"
         style="fill:none;stroke:#000000;stroke-width:10;stroke-linecap:butt;stroke-linejoin:miter;stroke-miterlimit:10;stroke-dasharray:none;stroke-opacity:1"
         d="m 1028.45,1939.79 70.45,-48.33 14.41,58.25 z" /><g
         transform="scale(10)"
         id="g132"><text
           id="text150"
           style="font-variant:normal;font-weight:normal;font-size:12px;font-family:Monaco;-inkscape-font-specification:Monaco;writing-mode:lr-tb;fill:#000000;fill-opacity:1;fill-rule:nonzero;stroke:none"
           transform="matrix(1,0,0,-1,493,516)"><tspan
             id="tspan134"
             y="0"
             x="0 7.1999998 14.4 21.6 28.799999 36 43.200001 50.400002 57.599998 64.800003 72 79.199997 86.400002 93.599998">size: c4.large</tspan><tspan
             id="tspan136"
             y="32"
             x="0 7.1999998 14.4 21.6 28.799999 36 43.200001 50.400002 57.599998 64.800003 72 79.199997 86.400002 93.599998 100.8 108">desired count: 6</tspan><tspan
             id="tspan138"
             y="64"
             x="0 7.1999998 14.4 21.6 28.799999 36 43.200001 50.400002 57.599998 64.800003 72 79.199997 86.400002 93.599998 100.8 108 115.2 122.4">region: us-east-1b</tspan><tspan
             id="tspan140"
             y="96"
             x="0 7.1999998 14.4 21.6 28.799999 36 43.200001 50.400002 57.599998 64.800003 72 79.199997 86.400002 93.599998 100.8 108 115.2 122.4 129.60001 136.8 144">EC2 AMI: ami-d05e75b8</tspan><tspan
             id="tspan142"
             y="387"
             x="0 7.1999998 14.4 21.6 28.799999 36 43.200001 50.400002 57.599998 64.800003 72 79.199997 86.400002 93.599998 100.8">size: m3.xlarge</tspan><tspan
             id="tspan144"
             y="419"
             x="0 7.1999998 14.4 21.6 28.799999 36 43.200001 50.400002 57.599998 64.800003 72 79.199997 86.400002 93.599998 100.8 108">desired count: 3</tspan><tspan
             id="tspan146"
             y="451"
             x="0 7.1999998 14.4 21.6 28.799999 36 43.200001 50.400002 57.599998 64.800003 72 79.199997 86.400002 93.599998 100.8 108 115.2 122.4">region: us-east-1b</tspan><tspan
             id="tspan148"
             y="483"
             x="0 7.1999998 14.4 21.6 28.799999 36 43.200001 50.400002 57.599998 64.800003 72 79.199997 86.400002 93.599998 100.8 108 115.2 122.4 129.60001 136.8 144">EC2 AMI: ami-d05e75b8</tspan></text>
</g><path
         id="path152"
         style="fill:#dde2ff;fill-opacity:1;fill-rule:nonzero;stroke:none"
         d="m 560,2720 h 450 v 180 H 560 Z" /><path
         id="path154"
         style="fill:none;stroke:#000000;stroke-width:10;stroke-linecap:round;stroke-linejoin:round;stroke-miterlimit:10;stroke-dasharray:none;stroke-opacity:1"
         d="m 565,2715 h 450 v 180 H 565 Z" /><path
         id="path156"
         style="fill:#effef5;fill-opacity:1;fill-rule:nonzero;stroke:none"
         d="M 3350,2000 H 6590 V 3800 H 3350 Z" /><path
         id="path158"
         style="fill:none;stroke:#000000;stroke-width:10;stroke-linecap:round;stroke-linejoin:round;stroke-miterlimit:10;stroke-dasharray:none;stroke-opacity:1"
         d="M 3355,1995 H 6595 V 3795 H 3355 Z" /><g
         transform="scale(10)"
         id="g160"><text
           id="text164"
           style="font-variant:normal;font-weight:bold;font-size:12px;font-family:Helvetica;-inkscape-font-specification:Helvetica-Bold;writing-mode:lr-tb;fill:#000000;fill-opacity:1;fill-rule:nonzero;stroke:none"
           transform="matrix(1,0,0,-1,340,364)"><tspan
             id="tspan162"
             y="0"
             x="0 9.9960003 17.327999 24.66 27.996 31.992001 39.324001 43.992001 47.327999 54.66 61.992001 65.328003 73.332001 78 85.332001 92.664001 96">Monitoring Proﬁle</tspan></text>
</g><path
         id="path166"
         style="fill:#dde2ff;fill-opacity:1;fill-rule:nonzero;stroke:none"
         d="m 3530,3080 h 1260 v 360 H 3530 Z" /><path
         id="path168"
         style="fill:none;stroke:#000000;stroke-width:10;stroke-linecap:round;stroke-linejoin:round;stroke-miterlimit:10;stroke-dasharray:none;stroke-opacity:1"
         d="m 3535,3075 h 1260 v 360 H 3535 Z" /><g
         transform="scale(10)"
         id="g170"><text
           id="text174"
           style="font-variant:normal;font-weight:normal;font-size:12px;font-family:Helvetica;-inkscape-font-specification:Helvetica;writing-mode:lr-tb;fill:#000000;fill-opacity:1;fill-rule:nonzero;stroke:none"
           transform="matrix(1,0,0,-1,373.303,322)"><tspan
             id="tspan172"
             y="0"
             x="0 6.6719999 13.344 19.344 25.344 28.68 35.352001 42.023998 48.023998 54.695999 61.368 68.040001 74.711998 78.708">onyx dashboard</tspan></text>
</g><path
         id="path176"
         style="fill:none;stroke:#000000;stroke-width:10;stroke-linecap:round;stroke-linejoin:round;stroke-miterlimit:10;stroke-dasharray:10, 40;stroke-dashoffset:0;stroke-opacity:1"
         d="M 3350,2805 H 1109" /><path
         id="path178"
         style="fill:#000000;fill-opacity:1;fill-rule:nonzero;stroke:none"
         d="m 1029,2810 80,-30 v 60 z" /><path
         id="path180"
         style="fill:none;stroke:#000000;stroke-width:10;stroke-linecap:butt;stroke-linejoin:miter;stroke-miterlimit:10;stroke-dasharray:none;stroke-opacity:1"
         d="m 1029,2810 80,-30 v 60 z" /><g
         transform="scale(10)"
         id="g182"><text
           id="text192"
           style="font-variant:normal;font-weight:normal;font-size:12px;font-family:Monaco;-inkscape-font-specification:Monaco;writing-mode:lr-tb;fill:#000000;fill-opacity:1;fill-rule:nonzero;stroke:none"
           transform="matrix(1,0,0,-1,493,327)"><tspan
             id="tspan184"
             y="0"
             x="0 7.1999998 14.4 21.6 28.799999 36 43.200001 50.400002 57.599998 64.800003 72 79.199997 86.400002 93.599998">size: t2.large</tspan><tspan
             id="tspan186"
             y="32"
             x="0 7.1999998 14.4 21.6 28.799999 36 43.200001 50.400002 57.599998 64.800003 72 79.199997 86.400002 93.599998 100.8 108">desired count: 1</tspan><tspan
             id="tspan188"
             y="64"
             x="0 7.1999998 14.4 21.6 28.799999 36 43.200001 50.400002 57.599998 64.800003 72 79.199997 86.400002 93.599998 100.8 108 115.2 122.4">region: us-east-1b</tspan><tspan
             id="tspan190"
             y="96"
             x="0 7.1999998 14.4 21.6 28.799999 36 43.200001 50.400002 57.599998 64.800003 72 79.199997 86.400002 93.599998 100.8 108 115.2 122.4 129.60001 136.8 144">EC2 AMI: ami-8fcee4e5</tspan></text>
</g><path
         id="path194"
         style="fill:#dde2ff;fill-opacity:1;fill-rule:nonzero;stroke:none"
         d="m 3530,2630 h 1260 v 360 H 3530 Z" /><path
         id="path196"
         style="fill:none;stroke:#000000;stroke-width:10;stroke-linecap:round;stroke-linejoin:round;stroke-miterlimit:10;stroke-dasharray:none;stroke-opacity:1"
         d="m 3535,2625 h 1260 v 360 H 3535 Z" /><g
         transform="scale(10)"
         id="g198"><text
           id="text202"
           style="font-variant:normal;font-weight:normal;font-size:12px;font-family:Helvetica;-inkscape-font-specification:Helvetica;writing-mode:lr-tb;fill:#000000;fill-opacity:1;fill-rule:nonzero;stroke:none"
           transform="matrix(1,0,0,-1,395.32,277)"><tspan
             id="tspan200"
             y="0"
             x="0 2.664 9.3360004 15.336 22.007999 28.007999 34.68">inﬂuxdb</tspan></text>
</g><path
         id="path204"
         style="fill:#dde2ff;fill-opacity:1;fill-rule:nonzero;stroke:none"
         d="m 3530,2180 h 1260 v 360 H 3530 Z" /><path
         id="path206"
         style="fill:none;stroke:#000000;stroke-width:10;stroke-linecap:round;stroke-linejoin:round;stroke-miterlimit:10;stroke-dasharray:none;stroke-opacity:1"
         d="m 3535,2175 h 1260 v 360 H 3535 Z" /><g
         transform="scale(10)"
         id="g208"><text
           id="text212"
           style="font-variant:normal;font-weight:normal;font-size:12px;font-family:Helvetica;-inkscape-font-specification:Helvetica;writing-mode:lr-tb;fill:#000000;fill-opacity:1;fill-rule:nonzero;stroke:none"
           transform="matrix(1,0,0,-1,395.65,232)"><tspan
             id="tspan210"
             y="0"
             x="0 6.6719999 10.668 17.34 20.676001 27.348 34.02">grafana</tspan></text>
</g></g></g></svg>